<svg id="Group_3" data-name="Group 3" xmlns="http://www.w3.org/2000/svg" viewBox="0 0 209.008 43.281">
  <defs>
    <style>
      .cls-1 {
        fill: #fff;
      }

      .cls-2 {
        fill: #5a4d4e;
      }
    </style>
  </defs>
  <path id="Path_1" data-name="Path 1" class="cls-1" d="M218.48,22.706l.379-1.564,2.086-3.176,2.607-3.366,1.991,1.612,12.278,6.494,1.612,3.129-1.659,4.172-.379,4.646-2.181,2.892-.047.569-1.09.616L227.3,34.51l-8.817-7.869-1.28-2.228Z" transform="translate(-114.237 -7.679)"/>
  <path id="Path_2" data-name="Path 2" d="M256.336,27.163c-1.47-.521-2.892-1.09-4.361-1.564-3.366-1.043-6.779-2.038-10.145-3.034-2.228-.664-4.456-1.422-6.731-1.991-4.314-1-8.675-1.9-13.036-2.8-2.844-.616-5.689-1.28-8.533-1.8-4.646-.806-9.291-1.564-13.984-2.275-4.693-.664-9.434-1.233-14.174-1.849a2.816,2.816,0,0,0-.521.047,5.765,5.765,0,0,0,1.233,1.043,1.8,1.8,0,0,1,1.185,2.418c22.517,2.086,44.8,5.309,66.556,11.472,0,.095-.047.19-.047.284-1.564-.427-3.081-.853-4.693-1.233-5.215-1.138-10.382-2.275-15.6-3.271-4.409-.853-8.865-1.517-13.321-2.133-4.74-.664-9.528-1.28-14.269-1.707-6.589-.664-13.179-1.138-19.768-1.707a1.679,1.679,0,0,0-1.09.19c-2.749,1.659-5.641,2.607-8.865,1.422a9.5,9.5,0,0,0-1.612-.332c-.427,1.327-.9,2.56-1.28,3.84a2.334,2.334,0,0,0-.095,1.138c.9,2.275-.806,3.65-1.849,5.262a15.344,15.344,0,0,1-1.375,1.612c-.379.427-.711.474-1.09,0v.047a11.863,11.863,0,0,1,.427-1.185c.521-1.09,1-2.228,1.612-3.271.853-1.517.379-3.129.711-4.693a12.827,12.827,0,0,1,.806-1.849c.237-.616.19-1.138-.664-1.185a8.919,8.919,0,0,1-1.564-.237,6.151,6.151,0,0,1-3.366-2.038c-.711-.948-2.086-1.327-3.129-2.038A7.3,7.3,0,0,1,162.1,12.42c-1.375-1.612-2.7-3.271-4.029-4.93-.806.521-.474,1.47-.284,2.323.237,1.09.664,2.181.853,3.271a12.018,12.018,0,0,1,0,2.275c-1.659-1.47-1.707-3.271-2.275-5.167-1.043,1.233-1.991,2.275-2.939,3.366-.095,0-.19-.047-.284-.047a12.9,12.9,0,0,1,.616-2.323,18.738,18.738,0,0,1,1.517-2.228c-21.1-1.185-41.858-2.323-62.669-2.418,1.327-.095,2.655-.284,4.029-.284a116.484,116.484,0,0,0,21.048-2.465c1.564-.332,3.081-.711,4.6-1.09a1.783,1.783,0,0,1,1-.047c2.749.664,5.452,1.422,8.248,1.991a65.568,65.568,0,0,0,6.826.9c5.831.474,11.709.9,17.54,1.327,1.612.142,1.9-.19,1.707-1.754-.095-1,.758-1.138,1.422-1.422,1.944-.758,3.887-1.517,6.02-2.323-2.8-.379-5.452-.758-8.059-1.138V0c1.944.095,3.887.237,5.831.332A102.048,102.048,0,0,0,181.057.19a1.762,1.762,0,0,1,1.09.237,22.8,22.8,0,0,0,10.145,3.366c2.844.427,5.641,1.28,8.485,1.944,4.029.948,8.059,1.8,12.088,2.8,1.991.474,3.982,1.185,5.973,1.8,4.077,1.28,8.154,2.465,12.136,3.84,2.939,1,5.831,2.181,8.723,3.413,3.65,1.612,7.253,3.271,10.808,5.072,2.418,1.233,4.646,2.749,6.968,4.124.095.047.142.237.237.379-1.564-.853-3.081-1.754-4.646-2.512-3.366-1.612-6.731-3.271-10.239-4.693-4.124-1.659-8.3-3.224-12.515-4.551-5.546-1.754-11.14-3.271-16.686-4.74-3.508-.948-7.111-1.754-10.666-2.512-3.65-.806-7.3-1.517-10.951-2.228-4.124-.806-8.2-1.612-12.325-2.37-1.375-.237-2.749-.332-3.745-.474,1.185.948,2.607,2.038,4.029,3.081a1.969,1.969,0,0,1,.853,1.944c-.095.806.142,1.422,1.185,1.517,3.555.427,7.111.853,10.666,1.375,4.646.711,9.244,1.422,13.89,2.228,4.361.806,8.722,1.707,13.084,2.655,2.275.474,4.551,1.09,6.826,1.659,3.745.948,7.537,1.754,11.282,2.844,4.029,1.185,8.011,2.607,11.993,4.029C252.07,25.267,254.2,26.262,256.336,27.163ZM184.471,16.5c-.142-.332-.142-.616-.332-.758a1.832,1.832,0,0,1-.332-2.607c.142-.19-.095-.853-.332-1.09-1.375-1.185-2.844-2.323-4.266-3.508V8.106c.332-.142.616-.237.948-.379-2.8-3.84-6.779-4.883-10.95-5.594.047.237.047.427.095.758a18.872,18.872,0,0,0-2.086-.332,8.42,8.42,0,0,0-2.655-.095,31.314,31.314,0,0,0-4.029,1.422c-.853.332-1.517.9-1.138,1.9.948,2.37,1.707,4.883,3.745,6.589s3.6,2.038,5.072-.047a4.413,4.413,0,0,0,.711-2.465,45.985,45.985,0,0,0-.521-5.072c-.095-.806.142-1.043.9-1,.047.284.047.569.095.806.047,1.185.379,1.375,1.47.853a10.126,10.126,0,0,1,1.28-.427c.095.095.142.237.237.332a5.208,5.208,0,0,1-.664.427c-1.8.474-1.659,1.849-1.659,3.224a4.329,4.329,0,0,1,0,1.564,25.028,25.028,0,0,1-1.659,2.655c-.284.379-.948.758-.9,1.09.047.521.569.948.948,1.375a3.056,3.056,0,0,0,.758.521,9.687,9.687,0,0,0,4.5,1.564c1.422.095,2.8.379,4.219.521.616.047,1.28,0,1.9,0a6.6,6.6,0,0,0-2.275-.521c-1.707-.142-3.318-1.327-5.12-.758-.047,0-.142-.142-.284-.284a4.37,4.37,0,0,1,.379-.237,2.061,2.061,0,0,1,.332-.284c-.9-.047-1.707-.095-2.512-.142v-.379h6.969v.332c-.616.142-1.233.237-1.8.379,2.465,2.181,5.262.616,8.059,1.043-.711-1.517-2.37-1.043-3.271-1.944.047-.095.047-.19.095-.284C181.674,15.644,183,16.07,184.471,16.5Zm2.133-2.038c.047-.142.095-.237.142-.379-.616-.379-1.28-.711-2.133-1.233-.047.9-.095,1.517-.19,2.275A17.748,17.748,0,0,0,186.6,14.458Z" transform="translate(-48.703)"/>
  <path id="Path_3" data-name="Path 3" d="M133.467,40.373c.711,4.029-1.47,9.434-4.409,10.571a5.4,5.4,0,0,1,.237-1.09c1.375-2.086,1.233-4.6,1.991-6.874.142-.379-.332-1-.616-1.707-2.8,4.124-4.788,8.533-8.343,11.8-.095-.047-.237-.142-.332-.19.379-.9.711-1.9,1.138-2.749.948-1.991,1.991-3.935,2.986-5.878a16.3,16.3,0,0,0,1.185-2.418c.569-1.564.095-2.512-1.422-3.176a1.094,1.094,0,0,0-1.707.664c-.427,1.043-.806,2.133-1.327,3.129-1.138,2.181-2.228,4.409-3.555,6.494a39.392,39.392,0,0,1-3.366,4.077,1.8,1.8,0,0,1-1.138.427,7.431,7.431,0,0,1,.474-1.327c.474-.806,1.043-1.564,1.47-2.37.948-1.849,1.849-3.7,2.749-5.546.569-1.233,1.043-2.56,1.564-3.84,1.138-2.892-.047-5.12-2.133-7.063-.664-.616-1.375-1.138-2.228-1.849-.142,1.233-.142,2.275-.332,3.224a20.144,20.144,0,0,1-1,2.655c-.142-.047-.237-.047-.379-.095V31.982c-2.086,1.47-2.086,3.982-3.461,5.641,0-2.133,0-4.219,1.185-5.973.806-1.233,1.375-2.37.758-3.887a5.846,5.846,0,0,1-.19-1.9c-29.486-.758-58.924.616-88.173,5.641.427-.19.9-.332,1.327-.521a11.7,11.7,0,0,0,1.375-.474c4.5-1.47,9.007-2.987,13.51-4.456a19.983,19.983,0,0,0,7.348-4.219,1.542,1.542,0,0,1,1.043-.19c3.935.569,7.822,1.327,11.756,1.659a70.784,70.784,0,0,0,8.391,0c1.517,0,3.034-.142,4.551-.142,6.779-.047,13.558-.142,20.337-.095,5.546,0,11.093.095,16.592.19a11.628,11.628,0,0,1,1.849.19c-.237-.474-.616-1-.569-1.375a3.144,3.144,0,0,1,.948-1.47,4.389,4.389,0,0,1,3.982-1.185,1.189,1.189,0,0,1,.758.948c-.047.427-.521.806-.758,1.138.047,1.375.142,2.844.142,4.266a5.65,5.65,0,0,0,2.56,4.551c2.133,1.659,4.456,3.081,6.684,4.551,1.47.948,3.129,1.707,4.5,2.8a10.4,10.4,0,0,1,2.038,2.7Z" transform="translate(-13.201 -10.176)"/>
  <path id="Path_4" data-name="Path 4" d="M245.131,43.306a50.632,50.632,0,0,1-4.835-4.693c-.664-.806-.711-2.181-1-3.271a3.264,3.264,0,0,0,.379-.142,8.355,8.355,0,0,0,1.09,1.754,15.3,15.3,0,0,0,2.323,1.944A6.094,6.094,0,0,1,245.131,43.306Z" transform="translate(-125.86 -18.514)"/>
  <path id="Path_5" data-name="Path 5" class="cls-1" d="M258.4,18.916c-1.517-.427-2.8-.806-4.124-1.233-.047.095-.047.19-.095.284.853.9,2.56.427,3.271,1.944-2.749-.379-5.594,1.185-8.059-1.043.569-.095,1.185-.237,1.8-.379v-.332h-6.969v.379c.806.047,1.612.095,2.512.142-.142.095-.237.237-.332.284a2.647,2.647,0,0,1-.379.237c.142.142.237.284.284.284,1.849-.569,3.413.616,5.12.758a6.6,6.6,0,0,1,2.275.521c-.616,0-1.28.047-1.9,0-1.422-.142-2.8-.474-4.219-.521a9.851,9.851,0,0,1-4.5-1.564,2.709,2.709,0,0,1-.758-.521,3.6,3.6,0,0,1-.948-1.375c-.047-.332.664-.664.9-1.09a15.517,15.517,0,0,0,1.659-2.655,4.329,4.329,0,0,0,0-1.564c-.047-1.375-.142-2.8,1.659-3.224a1.988,1.988,0,0,0,.664-.427c-.095-.095-.142-.237-.237-.332-.427.142-.853.237-1.28.427-1.09.521-1.375.332-1.47-.853a5.28,5.28,0,0,0-.095-.806c-.758-.047-1.043.19-.9,1a44.834,44.834,0,0,1,.521,5.072,4.526,4.526,0,0,1-.711,2.465c-1.47,2.133-3.034,1.754-5.072.047s-2.8-4.219-3.745-6.589c-.379-1,.237-1.564,1.138-1.9a40.634,40.634,0,0,1,4.029-1.422,8.328,8.328,0,0,1,2.655.095,18.871,18.871,0,0,1,2.086.332c-.047-.332-.047-.521-.095-.758,4.172.711,8.154,1.754,11,5.546-.332.142-.664.237-.948.379v.427c1.422,1.138,2.892,2.275,4.266,3.508.237.237.474.853.332,1.09a1.757,1.757,0,0,0,.332,2.607C258.256,18.3,258.3,18.584,258.4,18.916Zm-7.68-8.106c-.427-.142-.806-.284-1.185-.427.284-.474.521-.853.853-1.47-1.327.19-2.37.332-3.366.474,0,.095-.047.237-.047.332.521.379,1,.806,1.47,1.185-.237.095-.616.19-1.09.332C249.913,12,250.1,12,250.719,10.81Z" transform="translate(-122.631 -2.419)"/>
  <path id="Path_6" data-name="Path 6" class="cls-2" d="M288.533,28.712c-.616.19-1.28.379-2.133.664.047-.758.095-1.327.19-2.275.853.521,1.517.853,2.133,1.233A2.8,2.8,0,0,0,288.533,28.712Z" transform="translate(-150.633 -14.253)"/>
  <path id="Path_7" data-name="Path 7" class="cls-1" d="M333.3,57.5c.332-1.233.664-2.323,1-3.6,2.844.237,5.689.427,8.628.664-.379,1.138-.711,2.133-1.09,3.129-.047.142-.427.284-.664.237C338.562,57.835,335.955,57.692,333.3,57.5Z" transform="translate(-175.3 -28.349)"/>
  <path id="Path_8" data-name="Path 8" d="M266.045,15.6c-.616,1.138-.806,1.185-3.366.427.474-.142.853-.237,1.09-.332-.474-.379-1-.806-1.47-1.185,0-.095.047-.237.047-.332,1-.142,2.038-.284,3.366-.474-.379.616-.569,1-.853,1.47C265.286,15.312,265.618,15.454,266.045,15.6Z" transform="translate(-137.957 -7.206)"/>
  <g id="Group_2" data-name="Group 2" transform="translate(0 21.427)">
    <g id="Group_1" data-name="Group 1" transform="translate(0)">
      <path id="Path_9" data-name="Path 9" d="M10.05,68.593c.427-1.043.806-2.086,1.233-3.176l-4.646.142C6.21,66.6,5.783,67.6,5.4,68.593H0c1.517-3.413,3.034-7.016,4.551-10.761A7.231,7.231,0,0,1,5.5,56.22a4.3,4.3,0,0,1,1.564-1.043,12.125,12.125,0,0,1,2.56-.711c1.043-.19,2.323-.379,3.887-.521,1.185-.142,2.181-.237,3.034-.284a15.1,15.1,0,0,1,2.086,0,3.243,3.243,0,0,1,1.233.332,1.017,1.017,0,0,1,.474.758,3.828,3.828,0,0,1-.284,1.612c-1.47,4.266-2.987,8.343-4.456,12.23ZM12.7,55.983c-.474.047-.9.095-1.233.142a2.731,2.731,0,0,0-.806.237,1.856,1.856,0,0,0-.474.379,1.892,1.892,0,0,0-.332.616c-.853,2.228-1.707,4.409-2.607,6.589,1.564-.047,3.129-.142,4.646-.19.853-2.228,1.707-4.5,2.607-6.779a2.531,2.531,0,0,0,.142-.616c-.047-.237-.19-.332-.474-.379A3.614,3.614,0,0,0,12.7,55.983Z" transform="translate(0 -49.631)"/>
      <path id="Path_10" data-name="Path 10" d="M50.313,66.476c-.758-3.318-1.564-6.589-2.323-9.813H47.8c-1.138,3.318-2.323,6.637-3.461,9.813H39.6c1.849-4.978,3.745-10.145,5.594-15.5,1.991-.19,3.982-.379,6.02-.521q1,5.049,1.991,10.239h.19c1.185-3.508,2.37-7.063,3.555-10.713,1.612-.142,3.224-.237,4.788-.379-1.849,5.736-3.745,11.377-5.594,16.876Z" transform="translate(-20.828 -47.514)"/>
      <path id="Path_11" data-name="Path 11" d="M101.8,49.781c-1.375.047-2.749.142-4.124.19-1.659,5.215-3.271,10.382-4.93,15.454H87.2c1.659-4.93,3.271-10,4.93-15.122-1.375.095-2.8.142-4.172.237.237-.711.427-1.422.664-2.086,4.6-.332,9.244-.616,13.842-.853C102.227,48.311,102.038,49.022,101.8,49.781Z" transform="translate(-45.863 -46.462)"/>
      <path id="Path_12" data-name="Path 12" d="M122.788,64.956H111.6c1.849-5.878,3.745-11.851,5.594-17.919,1.849-.095,3.7-.19,5.546-.237-1.612,5.357-3.271,10.666-4.883,15.928,1.9,0,3.792-.047,5.689-.047C123.262,63.439,123.025,64.2,122.788,64.956Z" transform="translate(-58.696 -46.042)"/>
      <path id="Path_13" data-name="Path 13" d="M150.056,64.272H139.2c1.849-6.068,3.745-12.23,5.594-18.488,3.6-.142,7.206-.237,10.856-.284-.237.758-.427,1.517-.664,2.275-1.754.047-3.508.047-5.309.095-.284.9-.521,1.8-.806,2.749,1.707-.047,3.413-.047,5.167-.095-.237.711-.474,1.422-.664,2.181-1.707.047-3.413.047-5.167.095-.9,3.081-1.849,6.115-2.749,9.2h5.357C150.53,62.708,150.293,63.514,150.056,64.272Z" transform="translate(-73.213 -45.358)"/>
      <path id="Path_14" data-name="Path 14" d="M172.646,64.115H167.1c1.9-6.21,3.745-12.515,5.641-18.82,2.655-.047,5.262-.095,7.917-.095,1.233,0,2.323,0,3.176.047a11.091,11.091,0,0,1,2.133.284,2.715,2.715,0,0,1,1.233.569,1.41,1.41,0,0,1,.474.948,5.447,5.447,0,0,1-.284,1.944l-.569,1.991a2.912,2.912,0,0,1-.711,1.233,4.114,4.114,0,0,1-1.09.758,5.415,5.415,0,0,1-1.233.427c-.427.095-.806.142-1.185.19,0,.047-.047.047-.047.095a5.814,5.814,0,0,1,1.849.474,1.36,1.36,0,0,1,.806,1.138,2.986,2.986,0,0,1-.142,1.233c-.758,2.512-1.47,5.025-2.228,7.537h-5.594c.806-2.655,1.564-5.309,2.37-7.964a1.465,1.465,0,0,0,.095-.379v-.332a.66.66,0,0,0-.474-.521,4.99,4.99,0,0,0-1.422-.142H175.3C174.5,57.952,173.547,61.033,172.646,64.115Zm3.461-11.472h2.512a4.119,4.119,0,0,0,1.849-.284,1.506,1.506,0,0,0,.711-.948c.237-.758.427-1.564.664-2.323a3.89,3.89,0,0,0,.142-.853.606.606,0,0,0-.474-.474,5.724,5.724,0,0,0-1.564-.142h-2.37C177.1,49.324,176.581,50.983,176.107,52.643Z" transform="translate(-87.887 -45.2)"/>
      <path id="Path_15" data-name="Path 15" d="M277.688,64.9H266.5c1.9-6.115,3.792-12.23,5.736-18.2,1.849.095,3.7.142,5.546.237-1.659,5.167-3.318,10.382-5.025,15.644,1.9,0,3.792,0,5.689.047C278.162,63.434,277.925,64.145,277.688,64.9Z" transform="translate(-140.166 -45.989)"/>
      <path id="Path_16" data-name="Path 16" d="M303.45,65.9l1.28-3.84c-1.564-.047-3.129-.047-4.646-.047-.427,1.28-.853,2.607-1.28,3.887h-5.4c1.517-4.788,3.081-9.481,4.6-14.127a6.415,6.415,0,0,1,1-1.9,3.38,3.38,0,0,1,1.564-1.043,7.8,7.8,0,0,1,2.56-.332c1.043,0,2.323.047,3.887.142,1.185.095,2.228.19,3.081.284a9.4,9.4,0,0,1,2.086.427,3.705,3.705,0,0,1,1.233.616,1.3,1.3,0,0,1,.474.9,4.553,4.553,0,0,1-.284,1.754c-1.517,4.361-3.081,8.77-4.6,13.321C307.147,65.9,305.3,65.9,303.45,65.9ZM306.2,50.775a5.319,5.319,0,0,0-1.233,0,1.889,1.889,0,0,0-.806.142,1.857,1.857,0,0,0-.474.379,2.478,2.478,0,0,0-.332.711c-.9,2.607-1.754,5.262-2.655,7.917,1.564.047,3.129.047,4.646.095.9-2.607,1.754-5.215,2.655-7.774a3.012,3.012,0,0,0,.142-.711.794.794,0,0,0-.474-.569A11.391,11.391,0,0,0,306.2,50.775Z" transform="translate(-154.314 -46.936)"/>
      <path id="Path_17" data-name="Path 17" d="M348.591,58.2a10.328,10.328,0,0,1,1.849.474,1.166,1.166,0,0,1,.806,1,2.818,2.818,0,0,1-.19,1.138c-.379,1.043-.806,2.133-1.185,3.176a4.4,4.4,0,0,1-.948,1.612,3.649,3.649,0,0,1-1.564.948,8.961,8.961,0,0,1-2.56.427c-1.043.095-2.37.095-4.029.095H332.9c1.9-5.546,3.84-11,5.736-16.26,2.607.237,5.262.427,7.869.711,1.233.095,2.323.237,3.176.379s1.564.284,2.133.427a2.715,2.715,0,0,1,1.233.569,1.2,1.2,0,0,1,.474.806,1.862,1.862,0,0,1-.047.711c-.047.237-.142.521-.237.853-.142.379-.284.711-.427,1.09a1.7,1.7,0,0,1-.711.9,3.124,3.124,0,0,1-1.138.521,5.79,5.79,0,0,1-1.233.284c-.427.047-.806.095-1.09.095A.046.046,0,0,1,348.591,58.2Zm-9.434,6.874c.806,0,1.564,0,2.37.047a8.806,8.806,0,0,0,1.233-.047,2.51,2.51,0,0,0,.758-.19,1.2,1.2,0,0,0,.474-.379,1.731,1.731,0,0,0,.332-.664c.474-1.28.948-2.56,1.422-3.792a.991.991,0,0,0,.095-.616.626.626,0,0,0-.474-.427,6.823,6.823,0,0,0-1.422-.19c-.853-.047-1.659-.095-2.512-.095C340.627,60.8,339.869,62.936,339.157,65.069Zm2.939-8.154,2.512.142a6.365,6.365,0,0,0,1.849-.095,1.255,1.255,0,0,0,.711-.758l.569-1.422a1.466,1.466,0,0,0,.095-.379.6.6,0,0,0,.047-.284.626.626,0,0,0-.474-.427,6.764,6.764,0,0,0-1.564-.237c-.806-.047-1.564-.142-2.37-.19C343,54.5,342.523,55.683,342.1,56.915Z" transform="translate(-175.089 -48.145)"/>
      <path id="Path_18" data-name="Path 18" d="M386.576,60.047c.237-.569.474-1.09.711-1.612a1.427,1.427,0,0,0,.19-.664.517.517,0,0,0-.474-.379,11.184,11.184,0,0,0-1.564-.237c-.521-.047-1-.095-1.28-.095a2.971,2.971,0,0,0-.758.095.984.984,0,0,0-.474.284,1.6,1.6,0,0,0-.284.569c-.19.427-.379.9-.569,1.327-.047.19-.095.332-.047.427.047.19.237.379.616.521s1.043.332,1.991.616c1.138.332,2.086.569,2.8.806a19,19,0,0,1,1.8.616,6.976,6.976,0,0,1,1.043.521,1,1,0,0,1,.379.569,1.693,1.693,0,0,1-.237,1.09c-.284.711-.616,1.375-.9,2.086a6.055,6.055,0,0,1-.948,1.47,3.539,3.539,0,0,1-1.564.853,11.336,11.336,0,0,1-2.607.379c-1.043.047-2.418.095-4.029.095-1.138,0-2.133,0-2.986-.047a11.543,11.543,0,0,1-2.086-.237,2.484,2.484,0,0,1-1.233-.474,1.106,1.106,0,0,1-.474-.806,3.51,3.51,0,0,1,.332-1.659c.379-1,.758-1.944,1.138-2.939,1.8.095,3.6.142,5.357.237L379.276,66.3a1.955,1.955,0,0,0-.19.711.517.517,0,0,0,.474.379,9.98,9.98,0,0,0,1.517.095,8.806,8.806,0,0,0,1.233-.047c.332-.047.569-.095.806-.142a1.21,1.21,0,0,0,.474-.332,3.009,3.009,0,0,0,.332-.569c.284-.711.569-1.375.853-2.086a1.115,1.115,0,0,0,.095-.379.3.3,0,0,0,0-.284.893.893,0,0,0-.569-.521c-.332-.142-1-.332-1.944-.616-1.138-.284-2.086-.569-2.844-.758-.758-.237-1.375-.474-1.849-.664a3.008,3.008,0,0,1-1-.616,1.222,1.222,0,0,1-.379-.616,1.024,1.024,0,0,1,.047-.521,2.9,2.9,0,0,1,.237-.569c.19-.474.379-.9.521-1.375a4.893,4.893,0,0,1,.948-1.564,3.081,3.081,0,0,1,1.517-.806,10.58,10.58,0,0,1,2.607-.142c1.043.047,2.418.19,4.029.379,1.185.142,2.181.284,3.034.427s1.517.284,2.086.427a4.36,4.36,0,0,1,1.232.521,1.019,1.019,0,0,1,.474.711,2.547,2.547,0,0,1-.332,1.422l-.711,1.564C390.179,60.332,388.377,60.19,386.576,60.047Z" transform="translate(-196.483 -50.282)"/>
    </g>
  </g>
</svg>
